<svg width="182" height="156" viewBox="0 0 182 156" fill="none" xmlns="http://www.w3.org/2000/svg">
<g id="Group 10236" opacity="0.31">
<path id="Vector" d="M0 3.2104C0 4.98411 1.43672 6.42081 3.21042 6.42081C4.98412 6.42081 6.42081 4.98411 6.42081 3.2104C6.42081 1.4367 4.98412 0 3.21042 0C1.43672 0 0 1.4367 0 3.2104Z" fill="#071753"/>
<path id="Vector_2" d="M43.8904 3.2104C43.8904 4.98411 45.3271 6.42081 47.1008 6.42081C48.8745 6.42081 50.3112 4.98411 50.3112 3.2104C50.3112 1.4367 48.8745 0 47.1008 0C45.3271 0 43.8904 1.4367 43.8904 3.2104Z" fill="#071753"/>
<path id="Vector_3" d="M87.7812 3.2104C87.7812 4.98411 89.2179 6.42081 90.9917 6.42081C92.7654 6.42081 94.2021 4.98411 94.2021 3.2104C94.2021 1.4367 92.7654 0 90.9917 0C89.2179 0 87.7812 1.4367 87.7812 3.2104Z" fill="#071753"/>
<path id="Vector_4" d="M131.672 3.2104C131.672 4.98411 133.109 6.42081 134.882 6.42081C136.656 6.42081 138.093 4.98411 138.093 3.2104C138.093 1.4367 136.656 0 134.882 0C133.109 0 131.672 1.4367 131.672 3.2104Z" fill="#071753"/>
<path id="Vector_5" d="M175.562 3.2104C175.562 4.98411 176.998 6.42081 178.772 6.42081C180.546 6.42081 181.982 4.98411 181.982 3.2104C181.982 1.4367 180.546 0 178.772 0C176.998 0 175.562 1.4367 175.562 3.2104Z" fill="#071753"/>
<path id="Vector_6" d="M0 33.0689C0 34.8426 1.43672 36.2792 3.21042 36.2792C4.98412 36.2792 6.42081 34.8426 6.42081 33.0689C6.42081 31.2952 4.98412 29.8586 3.21042 29.8586C1.43672 29.8408 0 31.2952 0 33.0689Z" fill="#071753"/>
<path id="Vector_7" d="M43.8904 33.0689C43.8904 34.8426 45.3271 36.2792 47.1008 36.2792C48.8745 36.2792 50.3112 34.8426 50.3112 33.0689C50.3112 31.2952 48.8745 29.8586 47.1008 29.8586C45.3271 29.8408 43.8904 31.2952 43.8904 33.0689Z" fill="#071753"/>
<path id="Vector_8" d="M87.7812 33.0689C87.7812 34.8425 89.2179 36.2792 90.9917 36.2792C92.7654 36.2792 94.2021 34.8425 94.2021 33.0689C94.2021 31.2952 92.7654 29.8586 90.9917 29.8586C89.2179 29.8408 87.7812 31.2952 87.7812 33.0689Z" fill="#071753"/>
<path id="Vector_9" d="M131.672 33.0689C131.672 34.8425 133.109 36.2792 134.882 36.2792C136.656 36.2792 138.093 34.8425 138.093 33.0689C138.093 31.2952 136.656 29.8586 134.882 29.8586C133.109 29.8408 131.672 31.2952 131.672 33.0689Z" fill="#071753"/>
<path id="Vector_10" d="M175.562 33.0689C175.562 34.8425 176.998 36.2792 178.772 36.2792C180.546 36.2792 181.982 34.8425 181.982 33.0689C181.982 31.2952 180.546 29.8586 178.772 29.8586C176.998 29.8408 175.562 31.2952 175.562 33.0689Z" fill="#071753"/>
<path id="Vector_11" d="M0 62.9093C0 64.683 1.43672 66.1197 3.21042 66.1197C4.98412 66.1197 6.42081 64.683 6.42081 62.9093C6.42081 61.1356 4.98412 59.6989 3.21042 59.6989C1.43672 59.6989 0 61.1356 0 62.9093Z" fill="#071753"/>
<path id="Vector_12" d="M43.8904 62.9093C43.8904 64.683 45.3271 66.1197 47.1008 66.1197C48.8745 66.1197 50.3112 64.683 50.3112 62.9093C50.3112 61.1356 48.8745 59.6989 47.1008 59.6989C45.3271 59.6989 43.8904 61.1356 43.8904 62.9093Z" fill="#071753"/>
<path id="Vector_13" d="M87.7812 62.9094C87.7812 64.6831 89.2179 66.1198 90.9917 66.1198C92.7654 66.1198 94.2021 64.6831 94.2021 62.9094C94.2021 61.1357 92.7654 59.699 90.9917 59.699C89.2179 59.699 87.7812 61.1357 87.7812 62.9094Z" fill="#071753"/>
<path id="Vector_14" d="M131.672 62.9094C131.672 64.6831 133.109 66.1198 134.882 66.1198C136.656 66.1198 138.093 64.6831 138.093 62.9094C138.093 61.1357 136.656 59.699 134.882 59.699C133.109 59.699 131.672 61.1357 131.672 62.9094Z" fill="#071753"/>
<path id="Vector_15" d="M175.562 62.9094C175.562 64.6831 176.998 66.1198 178.772 66.1198C180.546 66.1198 181.982 64.6831 181.982 62.9094C181.982 61.1357 180.546 59.699 178.772 59.699C176.998 59.699 175.562 61.1357 175.562 62.9094Z" fill="#071753"/>
<path id="Vector_16" d="M0 92.7675C0 94.5412 1.43672 95.9779 3.21042 95.9779C4.98412 95.9779 6.42081 94.5412 6.42081 92.7675C6.42081 90.9938 4.98412 89.5571 3.21042 89.5571C1.43672 89.5571 0 90.9938 0 92.7675Z" fill="#071753"/>
<path id="Vector_17" d="M43.8904 92.7673C43.8904 94.541 45.3271 95.9778 47.1008 95.9778C48.8745 95.9778 50.3112 94.541 50.3112 92.7673C50.3112 90.9936 48.8745 89.5569 47.1008 89.5569C45.3271 89.5569 43.8904 90.9936 43.8904 92.7673Z" fill="#071753"/>
<path id="Vector_18" d="M87.7812 92.7673C87.7812 94.541 89.2179 95.9777 90.9917 95.9777C92.7654 95.9777 94.2021 94.541 94.2021 92.7673C94.2021 90.9936 92.7654 89.5569 90.9917 89.5569C89.2179 89.5569 87.7812 90.9936 87.7812 92.7673Z" fill="#071753"/>
<path id="Vector_19" d="M131.672 92.7673C131.672 94.541 133.109 95.9777 134.882 95.9777C136.656 95.9777 138.093 94.541 138.093 92.7673C138.093 90.9936 136.656 89.5569 134.882 89.5569C133.109 89.5569 131.672 90.9936 131.672 92.7673Z" fill="#071753"/>
<path id="Vector_20" d="M175.562 92.7673C175.562 94.541 176.998 95.9777 178.772 95.9777C180.546 95.9777 181.982 94.541 181.982 92.7673C181.982 90.9936 180.546 89.5569 178.772 89.5569C176.998 89.5569 175.562 90.9936 175.562 92.7673Z" fill="#071753"/>
<path id="Vector_21" d="M0 122.608C0 124.382 1.43672 125.819 3.21042 125.819C4.98412 125.819 6.42081 124.382 6.42081 122.608C6.42081 120.835 4.98412 119.398 3.21042 119.398C1.43672 119.398 0 120.835 0 122.608Z" fill="#071753"/>
<path id="Vector_22" d="M43.8904 122.608C43.8904 124.382 45.3271 125.819 47.1008 125.819C48.8745 125.819 50.3112 124.382 50.3112 122.608C50.3112 120.835 48.8745 119.398 47.1008 119.398C45.3271 119.398 43.8904 120.835 43.8904 122.608Z" fill="#071753"/>
<path id="Vector_23" d="M87.7812 122.608C87.7812 124.382 89.2179 125.819 90.9917 125.819C92.7654 125.819 94.2021 124.382 94.2021 122.608C94.2021 120.835 92.7654 119.398 90.9917 119.398C89.2179 119.398 87.7812 120.835 87.7812 122.608Z" fill="#071753"/>
<path id="Vector_24" d="M131.672 122.608C131.672 124.382 133.109 125.819 134.882 125.819C136.656 125.819 138.093 124.382 138.093 122.608C138.093 120.835 136.656 119.398 134.882 119.398C133.109 119.398 131.672 120.835 131.672 122.608Z" fill="#071753"/>
<path id="Vector_25" d="M175.562 122.608C175.562 124.382 176.998 125.819 178.772 125.819C180.546 125.819 181.982 124.382 181.982 122.608C181.982 120.835 180.546 119.398 178.772 119.398C176.998 119.398 175.562 120.835 175.562 122.608Z" fill="#071753"/>
<path id="Vector_26" d="M0 152.466C0 154.24 1.43672 155.677 3.21042 155.677C4.98412 155.677 6.42081 154.24 6.42081 152.466C6.42081 150.693 4.98412 149.256 3.21042 149.256C1.43672 149.256 0 150.693 0 152.466Z" fill="#071753"/>
<path id="Vector_27" d="M43.8904 152.466C43.8904 154.24 45.3271 155.677 47.1008 155.677C48.8745 155.677 50.3112 154.24 50.3112 152.466C50.3112 150.693 48.8745 149.256 47.1008 149.256C45.3271 149.256 43.8904 150.693 43.8904 152.466Z" fill="#071753"/>
<path id="Vector_28" d="M87.7812 152.467C87.7812 154.24 89.2179 155.677 90.9917 155.677C92.7654 155.677 94.2021 154.24 94.2021 152.467C94.2021 150.693 92.7654 149.256 90.9917 149.256C89.2179 149.256 87.7812 150.693 87.7812 152.467Z" fill="#071753"/>
<path id="Vector_29" d="M131.672 152.467C131.672 154.24 133.109 155.677 134.882 155.677C136.656 155.677 138.093 154.24 138.093 152.467C138.093 150.693 136.656 149.256 134.882 149.256C133.109 149.256 131.672 150.693 131.672 152.467Z" fill="#071753"/>
<path id="Vector_30" d="M175.562 152.467C175.562 154.24 176.998 155.677 178.772 155.677C180.546 155.677 181.982 154.24 181.982 152.467C181.982 150.693 180.546 149.256 178.772 149.256C176.998 149.256 175.562 150.693 175.562 152.467Z" fill="#071753"/>
</g>
</svg>
