<svg width="16" height="16" viewBox="0 0 16 16" fill="none" xmlns="http://www.w3.org/2000/svg">
<g id="vuesax/outline/dollar-square" opacity="0.6">
<g id="vuesax/outline/dollar-square_2">
<g id="dollar-square">
<path id="Vector" d="M8.93344 11.6134H7.2601C6.16677 11.6134 5.2801 10.6934 5.2801 9.56005C5.2801 9.28672 5.50677 9.06005 5.7801 9.06005C6.05344 9.06005 6.2801 9.28672 6.2801 9.56005C6.2801 10.1401 6.7201 10.6134 7.2601 10.6134H8.93344C9.36677 10.6134 9.72677 10.2267 9.72677 9.76005C9.72677 9.18005 9.5201 9.06672 9.1801 8.94672L6.49344 8.00005C5.97344 7.82005 5.27344 7.43339 5.27344 6.24005C5.27344 5.21339 6.0801 4.38672 7.06677 4.38672H8.7401C9.83344 4.38672 10.7201 5.30672 10.7201 6.44005C10.7201 6.71339 10.4934 6.94005 10.2201 6.94005C9.94677 6.94005 9.7201 6.71339 9.7201 6.44005C9.7201 5.86005 9.2801 5.38672 8.7401 5.38672H7.06677C6.63344 5.38672 6.27344 5.77339 6.27344 6.24005C6.27344 6.82005 6.4801 6.93339 6.8201 7.05339L9.50677 8.00005C10.0268 8.18005 10.7268 8.56672 10.7268 9.76005C10.7201 10.7801 9.9201 11.6134 8.93344 11.6134Z" fill="#1A1D1F"/>
<path id="Vector_2" d="M8 12.5C7.72667 12.5 7.5 12.2733 7.5 12V4C7.5 3.72667 7.72667 3.5 8 3.5C8.27333 3.5 8.5 3.72667 8.5 4V12C8.5 12.2733 8.27333 12.5 8 12.5Z" fill="#1A1D1F"/>
<path id="Vector_3" d="M9.99992 15.1667H5.99992C2.37992 15.1667 0.833252 13.62 0.833252 10V6.00004C0.833252 2.38004 2.37992 0.833374 5.99992 0.833374H9.99992C13.6199 0.833374 15.1666 2.38004 15.1666 6.00004V10C15.1666 13.62 13.6199 15.1667 9.99992 15.1667ZM5.99992 1.83337C2.92658 1.83337 1.83325 2.92671 1.83325 6.00004V10C1.83325 13.0734 2.92658 14.1667 5.99992 14.1667H9.99992C13.0733 14.1667 14.1666 13.0734 14.1666 10V6.00004C14.1666 2.92671 13.0733 1.83337 9.99992 1.83337H5.99992Z" fill="#1A1D1F"/>
</g>
</g>
</g>
</svg>
