<svg width="28" height="26" viewBox="0 0 28 26" fill="none" xmlns="http://www.w3.org/2000/svg">
<g id="Group 1111111171">
<rect id="Rectangle 4482" width="28" height="26" rx="2" fill="white" fill-opacity="0.05"/>
<path id="Vector" d="M18.604 7.14288H9.0881C8.64517 7.14288 8.28613 7.51248 8.28613 7.96844V17.7642C8.28613 18.2202 8.64517 18.5898 9.0881 18.5898H18.604C19.0469 18.5898 19.406 18.2202 19.406 17.7642V7.96844C19.406 7.51248 19.0469 7.14288 18.604 7.14288V7.14288ZM12.2304 15.7951H10.8763V11.6015H12.2304V15.7951ZM11.5534 11.0288H11.5446C11.0902 11.0288 10.7963 10.7068 10.7963 10.3044C10.7963 9.89291 11.0992 9.57982 11.5624 9.57982C12.0256 9.57982 12.3107 9.89291 12.3195 10.3044C12.3195 10.7068 12.0256 11.0288 11.5534 11.0288ZM17.113 15.7951H15.7591V13.5516C15.7591 12.9878 15.563 12.6033 15.0731 12.6033C14.699 12.6033 14.4762 12.8627 14.3783 13.113C14.3425 13.2026 14.3338 13.3279 14.3338 13.4532V15.7951H12.9798C12.9798 15.7951 12.9975 11.9949 12.9798 11.6015H14.3338V12.1953C14.5137 11.9095 14.8357 11.5031 15.5541 11.5031C16.445 11.5031 17.113 12.1024 17.113 13.3905V15.7951Z" fill="white"/>
</g>
</svg>
