<svg width="28" height="26" viewBox="0 0 28 26" fill="none" xmlns="http://www.w3.org/2000/svg">
<g id="Group 1111111173">
<rect id="Rectangle 4480" width="28" height="26" rx="2" fill="white" fill-opacity="0.05"/>
<g id="Group 3">
<path id="Vector" d="M19.4681 10.6426C19.4415 10.0101 19.3439 9.5752 19.2041 9.19838C19.0599 8.79839 18.838 8.44029 18.5474 8.14259C18.2634 7.84026 17.9195 7.60534 17.5424 7.45654C17.1808 7.31 16.7682 7.20771 16.1647 7.17982C15.5568 7.14957 15.3638 7.14258 13.822 7.14258C12.2801 7.14258 12.0871 7.14957 11.4814 7.17746C10.878 7.20535 10.4632 7.30773 10.1038 7.45417C9.72214 7.60534 9.38052 7.8379 9.09654 8.14259C8.80813 8.44029 8.58411 8.80076 8.44208 9.19611C8.30229 9.5752 8.20471 10.0077 8.17811 10.6403C8.14925 11.2775 8.14258 11.4798 8.14258 13.0961C8.14258 14.7124 8.14925 14.9147 8.17586 15.5497C8.20246 16.1822 8.30013 16.6171 8.43991 16.9939C8.58411 17.3939 8.80813 17.752 9.09654 18.0497C9.38052 18.352 9.72439 18.5869 10.1015 18.7357C10.4632 18.8823 10.8758 18.9846 11.4793 19.0125C12.0848 19.0404 12.2779 19.0473 13.8198 19.0473C15.3617 19.0473 15.5546 19.0404 16.1603 19.0125C16.7637 18.9846 17.1786 18.8823 17.538 18.7357C18.3012 18.4264 18.9046 17.7939 19.1997 16.9939C19.3394 16.6148 19.437 16.1822 19.4636 15.5497C19.4902 14.9147 19.4969 14.7124 19.4969 13.0961C19.4969 11.4798 19.4947 11.2775 19.4681 10.6426ZM18.4454 15.5031C18.4209 16.0845 18.3278 16.3985 18.2501 16.6078C18.0593 17.1264 17.6666 17.5381 17.1719 17.7381C16.9722 17.8195 16.6706 17.9171 16.1181 17.9427C15.5191 17.9707 15.3395 17.9776 13.8242 17.9776C12.309 17.9776 12.1271 17.9707 11.5302 17.9427C10.9756 17.9171 10.6761 17.8195 10.4764 17.7381C10.2302 17.6427 10.0061 17.4915 9.82422 17.2939C9.63565 17.1008 9.49145 16.8683 9.40045 16.6102C9.32281 16.4009 9.22965 16.0845 9.20529 15.5055C9.1786 14.8776 9.17202 14.6892 9.17202 13.1008C9.17202 11.5124 9.1786 11.3217 9.20529 10.6961C9.22965 10.1147 9.32281 9.80077 9.40045 9.59146C9.49145 9.33328 9.63565 9.09845 9.82648 8.90768C10.0105 8.71 10.2324 8.55884 10.4787 8.46354C10.6783 8.38215 10.9801 8.28449 11.5325 8.25887C12.1315 8.23098 12.3112 8.22399 13.8264 8.22399C15.3439 8.22399 15.5235 8.23098 16.1204 8.25887C16.675 8.28449 16.9745 8.38215 17.1742 8.46354C17.4204 8.55884 17.6445 8.71 17.8264 8.90768C18.0149 9.10072 18.1591 9.33328 18.2501 9.59146C18.3278 9.80077 18.4209 10.117 18.4454 10.6961C18.472 11.324 18.4787 11.5124 18.4787 13.1008C18.4787 14.6892 18.472 14.8752 18.4454 15.5031Z" fill="white"/>
<path id="Vector_2" d="M13.8199 10.1725C12.1948 10.1725 10.8762 11.4813 10.8762 13.0946C10.8762 14.7079 12.1948 16.0166 13.8199 16.0166C15.4452 16.0166 16.7637 14.7079 16.7637 13.0946C16.7637 11.4813 15.4452 10.1725 13.8199 10.1725ZM13.8199 14.99C12.7656 14.99 11.9104 14.1412 11.9104 13.0946C11.9104 12.0479 12.7656 11.1991 13.8199 11.1991C14.8743 11.1991 15.7295 12.0479 15.7295 13.0946C15.7295 14.1412 14.8743 14.99 13.8199 14.99Z" fill="white"/>
<path id="Vector_3" d="M17.6047 9.95599C17.6047 10.3146 17.2752 10.6053 16.8687 10.6053C16.4623 10.6053 16.1328 10.3146 16.1328 9.95599C16.1328 9.59732 16.4623 9.30664 16.8687 9.30664C17.2752 9.30664 17.6047 9.59732 17.6047 9.95599Z" fill="white"/>
</g>
</g>
</svg>
