<svg width="91" height="17" viewBox="0 0 91 17" fill="none" xmlns="http://www.w3.org/2000/svg">
<g id="Rating">
<path id="Star 1" d="M8.05852 1.02656C8.18182 0.784954 8.52705 0.784955 8.65035 1.02656L10.6678 4.97973C10.7161 5.07432 10.8066 5.14013 10.9115 5.15681L15.2946 5.8539C15.5625 5.89651 15.6692 6.22484 15.4775 6.41677L12.3412 9.55705C12.2662 9.63219 12.2316 9.73868 12.2481 9.84358L12.9396 14.2276C12.9819 14.4955 12.7026 14.6984 12.4608 14.5754L8.50507 12.5631C8.41042 12.5149 8.29845 12.5149 8.2038 12.5631L4.24806 14.5754C4.00629 14.6984 3.72699 14.4955 3.76925 14.2276L4.46073 9.84358C4.47727 9.73868 4.44267 9.63219 4.36763 9.55705L1.23137 6.41677C1.03969 6.22484 1.14637 5.89651 1.41426 5.8539L5.79736 5.15681C5.90223 5.14013 5.99282 5.07432 6.04109 4.97973L8.05852 1.02656Z" fill="#FF8B00"/>
<path id="Star 2" d="M26.6628 1.02644C26.7861 0.784832 27.1313 0.784833 27.2546 1.02644L29.272 4.9796C29.3203 5.07419 29.4109 5.14001 29.5158 5.15669L33.8989 5.85378C34.1668 5.89639 34.2734 6.22472 34.0818 6.41665L30.9455 9.55693C30.8704 9.63207 30.8358 9.73856 30.8524 9.84346L31.5439 14.2274C31.5861 14.4954 31.3068 14.6983 31.0651 14.5753L27.1093 12.563C27.0147 12.5148 26.9027 12.5148 26.808 12.563L22.8523 14.5753C22.6105 14.6983 22.3312 14.4954 22.3735 14.2274L23.065 9.84346C23.0815 9.73856 23.0469 9.63207 22.9719 9.55693L19.8356 6.41665C19.6439 6.22472 19.7506 5.89639 20.0185 5.85378L24.4016 5.15669C24.5065 5.14001 24.5971 5.07419 24.6453 4.9796L26.6628 1.02644Z" fill="#FF8B00"/>
<path id="Star 3" d="M45.2673 1.02644C45.3906 0.784832 45.7358 0.784833 45.8591 1.02644L47.8765 4.9796C47.9248 5.07419 48.0154 5.14001 48.1203 5.15669L52.5034 5.85378C52.7712 5.89639 52.8779 6.22472 52.6862 6.41665L49.55 9.55693C49.4749 9.63207 49.4403 9.73856 49.4569 9.84346L50.1484 14.2274C50.1906 14.4954 49.9113 14.6983 49.6696 14.5753L45.7138 12.563C45.6192 12.5148 45.5072 12.5148 45.4125 12.563L41.4568 14.5753C41.215 14.6983 40.9357 14.4954 40.978 14.2274L41.6695 9.84346C41.686 9.73856 41.6514 9.63207 41.5764 9.55693L38.4401 6.41665C38.2484 6.22472 38.3551 5.89639 38.623 5.85378L43.0061 5.15669C43.111 5.14001 43.2016 5.07419 43.2498 4.9796L45.2673 1.02644Z" fill="#FF8B00"/>
<path id="Star 4" d="M63.872 1.02656C63.9953 0.784954 64.3405 0.784955 64.4638 1.02656L66.4813 4.97973C66.5295 5.07432 66.6201 5.14013 66.725 5.15681L71.1081 5.8539C71.376 5.89651 71.4827 6.22484 71.291 6.41677L68.1547 9.55705C68.0797 9.63219 68.0451 9.73868 68.0616 9.84358L68.7531 14.2276C68.7954 14.4955 68.5161 14.6984 68.2743 14.5754L64.3185 12.5631C64.2239 12.5149 64.1119 12.5149 64.0173 12.5631L60.0615 14.5754C59.8198 14.6984 59.5405 14.4955 59.5827 14.2276L60.2742 9.84358C60.2908 9.73868 60.2562 9.63219 60.1811 9.55705L57.0448 6.41677C56.8532 6.22484 56.9598 5.89651 57.2277 5.8539L61.6108 5.15681C61.7157 5.14013 61.8063 5.07432 61.8546 4.97973L63.872 1.02656Z" fill="#FF8B00"/>
<path id="Star 5" d="M82.4765 1.02656C82.5998 0.784954 82.945 0.784955 83.0683 1.02656L85.0858 4.97973C85.134 5.07432 85.2246 5.14013 85.3295 5.15681L89.7126 5.8539C89.9805 5.89651 90.0872 6.22484 89.8955 6.41677L86.7592 9.55705C86.6842 9.63219 86.6496 9.73868 86.6661 9.84358L87.3576 14.2276C87.3998 14.4955 87.1206 14.6984 86.8788 14.5754L82.923 12.5631C82.8284 12.5149 82.7164 12.5149 82.6218 12.5631L78.666 14.5754C78.4243 14.6984 78.145 14.4955 78.1872 14.2276L78.8787 9.84358C78.8952 9.73868 78.8606 9.63219 78.7856 9.55705L75.6493 6.41677C75.4577 6.22484 75.5643 5.89651 75.8322 5.8539L80.2153 5.15681C80.3202 5.14013 80.4108 5.07432 80.4591 4.97973L82.4765 1.02656Z" fill="#E6E9EC"/>
</g>
</svg>
