<svg width="16" height="16" viewBox="0 0 16 16" fill="none" xmlns="http://www.w3.org/2000/svg">
<g id="vuesax/outline/receipt-disscount" opacity="0.6">
<g id="vuesax/outline/receipt-disscount_2">
<g id="receipt-disscount">
<path id="Vector" d="M7.99992 15.1667C7.47325 15.1667 6.97325 14.9 6.62659 14.4267L5.95325 13.5267C5.81325 13.34 5.62659 13.2334 5.42659 13.22C5.22659 13.2067 5.02659 13.3 4.86659 13.4667L4.48659 13.1334L4.85325 13.4734C3.88659 14.5 3.15325 14.42 2.79992 14.28C2.43992 14.14 1.83325 13.68 1.83325 12.2V4.69337C1.83325 1.73337 2.68659 0.833374 5.47992 0.833374H10.5133C13.3066 0.833374 14.1599 1.73337 14.1599 4.69337V12.2C14.1599 13.6734 13.5533 14.1334 13.1933 14.28C12.8399 14.42 12.1066 14.5 11.1399 13.4734C10.9799 13.3 10.7733 13.2134 10.5733 13.2267C10.3733 13.24 10.1799 13.3467 10.0399 13.5334L9.36659 14.4334C9.02659 14.9 8.52659 15.1667 7.99992 15.1667ZM5.38659 12.22C5.41325 12.22 5.44659 12.22 5.47325 12.22C5.96659 12.2467 6.43325 12.5067 6.74659 12.9267L7.42659 13.8267C7.75325 14.26 8.25325 14.26 8.57992 13.8267L9.25325 12.9267C9.56659 12.5067 10.0333 12.2467 10.5333 12.22C11.0333 12.1934 11.5199 12.4 11.8799 12.7867C12.3866 13.3267 12.7133 13.3934 12.8333 13.3467C12.9933 13.28 13.1666 12.8934 13.1666 12.2V4.69337C13.1666 2.28671 12.7466 1.83337 10.5199 1.83337H5.47992C3.25325 1.83337 2.83325 2.28671 2.83325 4.69337V12.2C2.83325 12.9 3.00659 13.2867 3.16659 13.3467C3.28659 13.3934 3.61325 13.3267 4.11992 12.7867C4.46659 12.42 4.91992 12.22 5.38659 12.22Z" fill="#1A1D1F"/>
<path id="Vector_2" d="M9.99992 9.33333C9.62659 9.33333 9.33325 9.03333 9.33325 8.66667C9.33325 8.3 9.63325 8 9.99992 8C10.3666 8 10.6666 8.3 10.6666 8.66667C10.6666 9.03333 10.3733 9.33333 9.99992 9.33333Z" fill="#1A1D1F"/>
<path id="Vector_3" d="M5.99992 5.99996C5.62659 5.99996 5.33325 5.69996 5.33325 5.33329C5.33325 4.96663 5.63325 4.66663 5.99992 4.66663C6.36659 4.66663 6.66659 4.96663 6.66659 5.33329C6.66659 5.69996 6.37325 5.99996 5.99992 5.99996Z" fill="#1A1D1F"/>
<path id="Vector_4" d="M5.75322 9.69997C5.62655 9.69997 5.49988 9.6533 5.39988 9.5533C5.20655 9.35997 5.20655 9.03997 5.39988 8.84663L9.88655 4.35997C10.0799 4.16663 10.3999 4.16663 10.5932 4.35997C10.7865 4.5533 10.7865 4.8733 10.5932 5.06663L6.10655 9.5533C6.01322 9.6533 5.88655 9.69997 5.75322 9.69997Z" fill="#1A1D1F"/>
</g>
</g>
</g>
</svg>
