<svg width="29" height="26" viewBox="0 0 29 26" fill="none" xmlns="http://www.w3.org/2000/svg">
<g id="Group 1111111172">
<rect id="Rectangle 4481" width="29" height="26" rx="2" fill="white" fill-opacity="0.05"/>
<path id="Vector" d="M12.3518 17.4727C16.716 17.4727 19.1026 13.7737 19.1026 10.5663C19.1026 10.4612 19.1005 10.3566 19.0959 10.2525C19.5592 9.90987 19.9618 9.48226 20.2795 8.99554C19.8544 9.18894 19.3968 9.31896 18.9169 9.37778C19.4068 9.07715 19.7829 8.60179 19.9602 8.03512C19.5018 8.31317 18.9941 8.51518 18.4536 8.62429C18.0207 8.15248 17.4042 7.85742 16.7216 7.85742C15.4114 7.85742 14.3488 8.94446 14.3488 10.2844C14.3488 10.475 14.3697 10.6602 14.4103 10.8379C12.4384 10.7364 10.6897 9.77059 9.5196 8.30182C9.31591 8.66047 9.19837 9.07722 9.19837 9.52191C9.19837 10.364 9.61726 11.1075 10.2542 11.5424C9.86493 11.5301 9.4993 11.4208 9.17963 11.2388C9.17928 11.2491 9.17928 11.259 9.17928 11.2698C9.17928 12.4454 9.99711 13.427 11.0829 13.6494C10.8835 13.7049 10.6736 13.7347 10.4572 13.7347C10.3046 13.7347 10.1558 13.7194 10.0113 13.691C10.3133 14.6554 11.1893 15.3573 12.2278 15.3769C11.4157 16.0281 10.3927 16.416 9.28084 16.416C9.0896 16.416 8.90056 16.4048 8.71484 16.3824C9.76493 17.071 11.0118 17.4728 12.3519 17.4728" fill="white"/>
</g>
</svg>
